<?xml version="1.0" encoding="UTF-8" standalone="no"?>
<!DOCTYPE svg PUBLIC "-//W3C//DTD SVG 1.1//EN"
 "http://www.w3.org/Graphics/SVG/1.1/DTD/svg11.dtd">
<!-- Generated by graphviz version 2.43.0 (0)
 -->
<!-- Title: G Pages: 1 -->
<svg width="847pt" height="718pt"
 viewBox="0.00 0.00 847.00 718.00" xmlns="http://www.w3.org/2000/svg" xmlns:xlink="http://www.w3.org/1999/xlink">
<g id="graph0" class="graph" transform="scale(1 1) rotate(0) translate(4 714)">
<title>G</title>
<polygon fill="white" stroke="transparent" points="-4,4 -4,-714 843,-714 843,4 -4,4"/>
<g id="clust1" class="cluster">
<title>cluster_root</title>
<g id="a_clust1"><a xlink:title="eventq_index=0&#10;full_system=false&#10;sim_quantum=0&#10;time_sync_enable=false&#10;time_sync_period=100000000000&#10;time_sync_spin_threshold=100000000">
<path fill="#bab6ae" stroke="#000000" d="M20,-8C20,-8 819,-8 819,-8 825,-8 831,-14 831,-20 831,-20 831,-690 831,-690 831,-696 825,-702 819,-702 819,-702 20,-702 20,-702 14,-702 8,-696 8,-690 8,-690 8,-20 8,-20 8,-14 14,-8 20,-8"/>
<text text-anchor="middle" x="419.5" y="-686.8" font-family="Arial" font-size="14.00" fill="#000000">root </text>
<text text-anchor="middle" x="419.5" y="-671.8" font-family="Arial" font-size="14.00" fill="#000000">: Root</text>
</a>
</g>
</g>
<g id="clust2" class="cluster">
<title>cluster_system</title>
<g id="a_clust2"><a xlink:title="auto_unlink_shared_backstore=false&#10;cache_line_size=64&#10;eventq_index=0&#10;exit_on_work_items=false&#10;external_memory_ranges=&#10;init_param=0&#10;m5ops_base=0&#10;mem_mode=timing&#10;mem_ranges=0:1073741824&#10;memories=system.mem_ctrl&#10;mmap_using_noreserve=false&#10;multi_thread=false&#10;&#10;um_work_ids=16&#10;&#13;eadfile=&#10;&#13;edirect_paths=&#10;shadow_rom_ranges=&#10;shared_backstore=&#10;symbolfile=&#10;thermal_components=&#10;thermal_model=Null&#10;work_begin_ckpt_count=0&#10;work_begin_cpu_id_exit=&#45;1&#10;work_begin_exit_count=0&#10;work_cpus_ckpt_count=0&#10;work_end_ckpt_count=0&#10;work_end_exit_count=0&#10;work_item_id=&#45;1&#10;workload=system.workload">
<path fill="#e4e7eb" stroke="#000000" d="M28,-16C28,-16 811,-16 811,-16 817,-16 823,-22 823,-28 823,-28 823,-644 823,-644 823,-650 817,-656 811,-656 811,-656 28,-656 28,-656 22,-656 16,-650 16,-644 16,-644 16,-28 16,-28 16,-22 22,-16 28,-16"/>
<text text-anchor="middle" x="419.5" y="-640.8" font-family="Arial" font-size="14.00" fill="#000000">system </text>
<text text-anchor="middle" x="419.5" y="-625.8" font-family="Arial" font-size="14.00" fill="#000000">: System</text>
</a>
</g>
</g>
<g id="clust6" class="cluster">
<title>cluster_system_cpu</title>
<g id="a_clust6"><a xlink:title="branchPred=Null&#10;checker=Null&#10;clk_domain=system.clk_domain&#10;cpu_id=&#45;1&#10;decoder=system.cpu.decoder&#10;do_checkpoint_insts=true&#10;do_statistics_insts=true&#10;eventq_index=0&#10;function_trace=false&#10;function_trace_start=0&#10;interrupts=system.cpu.interrupts&#10;isa=system.cpu.isa&#10;max_insts_all_threads=0&#10;max_insts_any_thread=0&#10;mmu=system.cpu.mmu&#10;&#10;umThreads=1&#10;power_gating_on_idle=false&#10;power_model=&#10;power_state=system.cpu.power_state&#10;progress_interval=0&#10;pwr_gating_latency=300&#10;simpoint_start_insts=&#10;socket_id=0&#10;switched_out=false&#10;syscallRetryLatency=10000&#10;system=system&#10;tracer=system.cpu.tracer&#10;workload=system.cpu.workload">
<path fill="#bbc6d9" stroke="#000000" d="M304,-24C304,-24 803,-24 803,-24 809,-24 815,-30 815,-36 815,-36 815,-286 815,-286 815,-292 809,-298 803,-298 803,-298 304,-298 304,-298 298,-298 292,-292 292,-286 292,-286 292,-36 292,-36 292,-30 298,-24 304,-24"/>
<text text-anchor="middle" x="553.5" y="-282.8" font-family="Arial" font-size="14.00" fill="#000000">cpu </text>
<text text-anchor="middle" x="553.5" y="-267.8" font-family="Arial" font-size="14.00" fill="#000000">: X86TimingSimpleCPU</text>
</a>
</g>
</g>
<g id="clust17" class="cluster">
<title>cluster_system_cpu_icache</title>
<g id="a_clust17"><a xlink:title="addr_ranges=0:18446744073709551615&#10;assoc=2&#10;clk_domain=system.clk_domain&#10;clusivity=mostly_incl&#10;compressor=Null&#10;data_latency=2&#10;demand_mshr_reserve=1&#10;eventq_index=0&#10;is_read_only=false&#10;max_miss_count=0&#10;move_contractions=true&#10;mshrs=4&#10;partitioning_manager=Null&#10;power_model=&#10;power_state=system.cpu.icache.power_state&#10;prefetcher=Null&#10;&#13;eplace_expansions=true&#10;&#13;eplacement_policy=system.cpu.icache.replacement_policy&#10;&#13;esponse_latency=2&#10;sequential_access=false&#10;size=32768&#10;system=system&#10;tag_latency=2&#10;tags=system.cpu.icache.tags&#10;tgts_per_mshr=20&#10;warmup_percentage=0&#10;write_allocator=Null&#10;write_buffers=8&#10;writeback_clean=false">
<path fill="#bab6ae" stroke="#000000" d="M506,-32C506,-32 668,-32 668,-32 674,-32 680,-38 680,-44 680,-44 680,-110 680,-110 680,-116 674,-122 668,-122 668,-122 506,-122 506,-122 500,-122 494,-116 494,-110 494,-110 494,-44 494,-44 494,-38 500,-32 506,-32"/>
<text text-anchor="middle" x="587" y="-106.8" font-family="Arial" font-size="14.00" fill="#000000">icache </text>
<text text-anchor="middle" x="587" y="-91.8" font-family="Arial" font-size="14.00" fill="#000000">: Cache</text>
</a>
</g>
</g>
<g id="clust23" class="cluster">
<title>cluster_system_cpu_dcache</title>
<g id="a_clust23"><a xlink:title="addr_ranges=0:18446744073709551615&#10;assoc=2&#10;clk_domain=system.clk_domain&#10;clusivity=mostly_incl&#10;compressor=Null&#10;data_latency=2&#10;demand_mshr_reserve=1&#10;eventq_index=0&#10;is_read_only=false&#10;max_miss_count=0&#10;move_contractions=true&#10;mshrs=4&#10;partitioning_manager=Null&#10;power_model=&#10;power_state=system.cpu.dcache.power_state&#10;prefetcher=Null&#10;&#13;eplace_expansions=true&#10;&#13;eplacement_policy=system.cpu.dcache.replacement_policy&#10;&#13;esponse_latency=2&#10;sequential_access=false&#10;size=32768&#10;system=system&#10;tag_latency=2&#10;tags=system.cpu.dcache.tags&#10;tgts_per_mshr=20&#10;warmup_percentage=0&#10;write_allocator=Null&#10;write_buffers=8&#10;writeback_clean=false">
<path fill="#bab6ae" stroke="#000000" d="M312,-32C312,-32 474,-32 474,-32 480,-32 486,-38 486,-44 486,-44 486,-110 486,-110 486,-116 480,-122 474,-122 474,-122 312,-122 312,-122 306,-122 300,-116 300,-110 300,-110 300,-44 300,-44 300,-38 306,-32 312,-32"/>
<text text-anchor="middle" x="393" y="-106.8" font-family="Arial" font-size="14.00" fill="#000000">dcache </text>
<text text-anchor="middle" x="393" y="-91.8" font-family="Arial" font-size="14.00" fill="#000000">: Cache</text>
</a>
</g>
</g>
<g id="clust29" class="cluster">
<title>cluster_system_cpu_interrupts</title>
<g id="a_clust29"><a xlink:title="clk_domain=system.cpu.interrupts.clk_domain&#10;eventq_index=0&#10;int_latency=1000&#10;pio_latency=100000&#10;system=system">
<path fill="#bab6ae" stroke="#000000" d="M518,-162C518,-162 795,-162 795,-162 801,-162 807,-168 807,-174 807,-174 807,-240 807,-240 807,-246 801,-252 795,-252 795,-252 518,-252 518,-252 512,-252 506,-246 506,-240 506,-240 506,-174 506,-174 506,-168 512,-162 518,-162"/>
<text text-anchor="middle" x="656.5" y="-236.8" font-family="Arial" font-size="14.00" fill="#000000">interrupts </text>
<text text-anchor="middle" x="656.5" y="-221.8" font-family="Arial" font-size="14.00" fill="#000000">: X86LocalApic</text>
</a>
</g>
</g>
<g id="clust34" class="cluster">
<title>cluster_system_membus</title>
<g id="a_clust34"><a xlink:title="clk_domain=system.clk_domain&#10;eventq_index=0&#10;forward_latency=4&#10;frontend_latency=3&#10;header_latency=1&#10;max_outstanding_snoops=512&#10;max_routing_table_size=512&#10;point_of_coherency=true&#10;point_of_unification=true&#10;power_model=&#10;power_state=system.membus.power_state&#10;&#13;esponse_latency=2&#10;snoop_filter=system.membus.snoop_filter&#10;snoop_response_latency=4&#10;system=system&#10;use_default_range=false&#10;width=16">
<path fill="#6f798c" stroke="#000000" d="M502,-436C502,-436 738,-436 738,-436 744,-436 750,-442 750,-448 750,-448 750,-514 750,-514 750,-520 744,-526 738,-526 738,-526 502,-526 502,-526 496,-526 490,-520 490,-514 490,-514 490,-448 490,-448 490,-442 496,-436 502,-436"/>
<text text-anchor="middle" x="620" y="-510.8" font-family="Arial" font-size="14.00" fill="#000000">membus </text>
<text text-anchor="middle" x="620" y="-495.8" font-family="Arial" font-size="14.00" fill="#000000">: SystemXBar</text>
</a>
</g>
</g>
<g id="clust37" class="cluster">
<title>cluster_system_l2bus</title>
<g id="a_clust37"><a xlink:title="clk_domain=system.clk_domain&#10;eventq_index=0&#10;forward_latency=0&#10;frontend_latency=1&#10;header_latency=1&#10;max_outstanding_snoops=512&#10;max_routing_table_size=512&#10;point_of_coherency=false&#10;point_of_unification=true&#10;power_model=&#10;power_state=system.l2bus.power_state&#10;&#13;esponse_latency=1&#10;snoop_filter=system.l2bus.snoop_filter&#10;snoop_response_latency=1&#10;system=system&#10;use_default_range=false&#10;width=32">
<path fill="#6f798c" stroke="#000000" d="M36,-162C36,-162 272,-162 272,-162 278,-162 284,-168 284,-174 284,-174 284,-240 284,-240 284,-246 278,-252 272,-252 272,-252 36,-252 36,-252 30,-252 24,-246 24,-240 24,-240 24,-174 24,-174 24,-168 30,-162 36,-162"/>
<text text-anchor="middle" x="154" y="-236.8" font-family="Arial" font-size="14.00" fill="#000000">l2bus </text>
<text text-anchor="middle" x="154" y="-221.8" font-family="Arial" font-size="14.00" fill="#000000">: L2XBar</text>
</a>
</g>
</g>
<g id="clust40" class="cluster">
<title>cluster_system_l2cache</title>
<g id="a_clust40"><a xlink:title="addr_ranges=0:18446744073709551615&#10;assoc=8&#10;clk_domain=system.clk_domain&#10;clusivity=mostly_incl&#10;compressor=Null&#10;data_latency=20&#10;demand_mshr_reserve=1&#10;eventq_index=0&#10;is_read_only=false&#10;max_miss_count=0&#10;move_contractions=true&#10;mshrs=20&#10;partitioning_manager=Null&#10;power_model=&#10;power_state=system.l2cache.power_state&#10;prefetcher=Null&#10;&#13;eplace_expansions=true&#10;&#13;eplacement_policy=system.l2cache.replacement_policy&#10;&#13;esponse_latency=20&#10;sequential_access=false&#10;size=262144&#10;system=system&#10;tag_latency=20&#10;tags=system.l2cache.tags&#10;tgts_per_mshr=12&#10;warmup_percentage=0&#10;write_allocator=Null&#10;write_buffers=8&#10;writeback_clean=false">
<path fill="#bab6ae" stroke="#000000" d="M204,-306C204,-306 366,-306 366,-306 372,-306 378,-312 378,-318 378,-318 378,-384 378,-384 378,-390 372,-396 366,-396 366,-396 204,-396 204,-396 198,-396 192,-390 192,-384 192,-384 192,-318 192,-318 192,-312 198,-306 204,-306"/>
<text text-anchor="middle" x="285" y="-380.8" font-family="Arial" font-size="14.00" fill="#000000">l2cache </text>
<text text-anchor="middle" x="285" y="-365.8" font-family="Arial" font-size="14.00" fill="#000000">: Cache</text>
</a>
</g>
</g>
<g id="clust46" class="cluster">
<title>cluster_system_mem_ctrl</title>
<g id="a_clust46"><a xlink:title="NVMainWarmUp=false&#10;atomic_latency=30000&#10;atomic_mode=false&#10;atomic_variance=10000&#10;clk_domain=system.clk_domain&#10;collect_stats=true&#10;conf_table_reported=true&#10;config=/home/anjali/gem5/ext/NVmain/Config/RRAM_ISSCC_2012_4GB.config&#10;configparams=&#10;configvalues=&#10;eventq_index=0&#10;image_file=&#10;in_addr_map=true&#10;kvm_map=true&#10;&#10;ull=false&#10;power_model=&#10;power_state=system.mem_ctrl.power_state&#10;&#13;ange=0:1073741824&#10;writeable=true">
<path fill="#5e5958" stroke="#000000" d="M704,-306C704,-306 803,-306 803,-306 809,-306 815,-312 815,-318 815,-318 815,-384 815,-384 815,-390 809,-396 803,-396 803,-396 704,-396 704,-396 698,-396 692,-390 692,-384 692,-384 692,-318 692,-318 692,-312 698,-306 704,-306"/>
<text text-anchor="middle" x="753.5" y="-380.8" font-family="Arial" font-size="14.00" fill="#000000">mem_ctrl </text>
<text text-anchor="middle" x="753.5" y="-365.8" font-family="Arial" font-size="14.00" fill="#000000">: NVMainMemory</text>
</a>
</g>
</g>
<!-- system_system_port -->
<g id="node1" class="node">
<title>system_system_port</title>
<path fill="#b6b8bc" stroke="#000000" d="M585.5,-610C585.5,-610 518.5,-610 518.5,-610 512.5,-610 506.5,-604 506.5,-598 506.5,-598 506.5,-586 506.5,-586 506.5,-580 512.5,-574 518.5,-574 518.5,-574 585.5,-574 585.5,-574 591.5,-574 597.5,-580 597.5,-586 597.5,-586 597.5,-598 597.5,-598 597.5,-604 591.5,-610 585.5,-610"/>
<text text-anchor="middle" x="552" y="-588.3" font-family="Arial" font-size="14.00" fill="#000000">system_port</text>
</g>
<!-- system_membus_cpu_side_ports -->
<g id="node11" class="node">
<title>system_membus_cpu_side_ports</title>
<path fill="#586070" stroke="#000000" d="M594,-480C594,-480 510,-480 510,-480 504,-480 498,-474 498,-468 498,-468 498,-456 498,-456 498,-450 504,-444 510,-444 510,-444 594,-444 594,-444 600,-444 606,-450 606,-456 606,-456 606,-468 606,-468 606,-474 600,-480 594,-480"/>
<text text-anchor="middle" x="552" y="-458.3" font-family="Arial" font-size="14.00" fill="#000000">cpu_side_ports</text>
</g>
<!-- system_system_port&#45;&gt;system_membus_cpu_side_ports -->
<g id="edge1" class="edge">
<title>system_system_port&#45;&gt;system_membus_cpu_side_ports</title>
<path fill="none" stroke="black" d="M552,-573.74C552,-552.36 552,-515.69 552,-490.44"/>
<polygon fill="black" stroke="black" points="555.5,-490.4 552,-480.4 548.5,-490.4 555.5,-490.4"/>
</g>
<!-- system_cpu_icache_port -->
<g id="node2" class="node">
<title>system_cpu_icache_port</title>
<path fill="#959ead" stroke="#000000" d="M484,-206C484,-206 422,-206 422,-206 416,-206 410,-200 410,-194 410,-194 410,-182 410,-182 410,-176 416,-170 422,-170 422,-170 484,-170 484,-170 490,-170 496,-176 496,-182 496,-182 496,-194 496,-194 496,-200 490,-206 484,-206"/>
<text text-anchor="middle" x="453" y="-184.3" font-family="Arial" font-size="14.00" fill="#000000">icache_port</text>
</g>
<!-- system_cpu_icache_cpu_side -->
<g id="node4" class="node">
<title>system_cpu_icache_cpu_side</title>
<path fill="#94918b" stroke="#000000" d="M659.5,-76C659.5,-76 612.5,-76 612.5,-76 606.5,-76 600.5,-70 600.5,-64 600.5,-64 600.5,-52 600.5,-52 600.5,-46 606.5,-40 612.5,-40 612.5,-40 659.5,-40 659.5,-40 665.5,-40 671.5,-46 671.5,-52 671.5,-52 671.5,-64 671.5,-64 671.5,-70 665.5,-76 659.5,-76"/>
<text text-anchor="middle" x="636" y="-54.3" font-family="Arial" font-size="14.00" fill="#000000">cpu_side</text>
</g>
<!-- system_cpu_icache_port&#45;&gt;system_cpu_icache_cpu_side -->
<g id="edge2" class="edge">
<title>system_cpu_icache_port&#45;&gt;system_cpu_icache_cpu_side</title>
<path fill="none" stroke="black" d="M485.84,-169.97C491.22,-167.26 496.75,-164.52 502,-162 541.1,-143.25 557.46,-149.49 591,-122 603.47,-111.79 614.13,-97.32 621.94,-84.83"/>
<polygon fill="black" stroke="black" points="624.99,-86.55 627.11,-76.17 618.98,-82.96 624.99,-86.55"/>
</g>
<!-- system_cpu_dcache_port -->
<g id="node3" class="node">
<title>system_cpu_dcache_port</title>
<path fill="#959ead" stroke="#000000" d="M379.5,-206C379.5,-206 312.5,-206 312.5,-206 306.5,-206 300.5,-200 300.5,-194 300.5,-194 300.5,-182 300.5,-182 300.5,-176 306.5,-170 312.5,-170 312.5,-170 379.5,-170 379.5,-170 385.5,-170 391.5,-176 391.5,-182 391.5,-182 391.5,-194 391.5,-194 391.5,-200 385.5,-206 379.5,-206"/>
<text text-anchor="middle" x="346" y="-184.3" font-family="Arial" font-size="14.00" fill="#000000">dcache_port</text>
</g>
<!-- system_cpu_dcache_cpu_side -->
<g id="node6" class="node">
<title>system_cpu_dcache_cpu_side</title>
<path fill="#94918b" stroke="#000000" d="M465.5,-76C465.5,-76 418.5,-76 418.5,-76 412.5,-76 406.5,-70 406.5,-64 406.5,-64 406.5,-52 406.5,-52 406.5,-46 412.5,-40 418.5,-40 418.5,-40 465.5,-40 465.5,-40 471.5,-40 477.5,-46 477.5,-52 477.5,-52 477.5,-64 477.5,-64 477.5,-70 471.5,-76 465.5,-76"/>
<text text-anchor="middle" x="442" y="-54.3" font-family="Arial" font-size="14.00" fill="#000000">cpu_side</text>
</g>
<!-- system_cpu_dcache_port&#45;&gt;system_cpu_dcache_cpu_side -->
<g id="edge3" class="edge">
<title>system_cpu_dcache_port&#45;&gt;system_cpu_dcache_cpu_side</title>
<path fill="none" stroke="black" d="M359.85,-169.78C370.23,-156.78 384.71,-138.42 397,-122 406.12,-109.83 415.97,-96.11 424.12,-84.58"/>
<polygon fill="black" stroke="black" points="427.08,-86.45 429.98,-76.26 421.36,-82.42 427.08,-86.45"/>
</g>
<!-- system_cpu_icache_mem_side -->
<g id="node5" class="node">
<title>system_cpu_icache_mem_side</title>
<path fill="#94918b" stroke="#000000" d="M570,-76C570,-76 514,-76 514,-76 508,-76 502,-70 502,-64 502,-64 502,-52 502,-52 502,-46 508,-40 514,-40 514,-40 570,-40 570,-40 576,-40 582,-46 582,-52 582,-52 582,-64 582,-64 582,-70 576,-76 570,-76"/>
<text text-anchor="middle" x="542" y="-54.3" font-family="Arial" font-size="14.00" fill="#000000">mem_side</text>
</g>
<!-- system_cpu_dcache_mem_side -->
<g id="node7" class="node">
<title>system_cpu_dcache_mem_side</title>
<path fill="#94918b" stroke="#000000" d="M376,-76C376,-76 320,-76 320,-76 314,-76 308,-70 308,-64 308,-64 308,-52 308,-52 308,-46 314,-40 320,-40 320,-40 376,-40 376,-40 382,-40 388,-46 388,-52 388,-52 388,-64 388,-64 388,-70 382,-76 376,-76"/>
<text text-anchor="middle" x="348" y="-54.3" font-family="Arial" font-size="14.00" fill="#000000">mem_side</text>
</g>
<!-- system_cpu_interrupts_int_requestor -->
<g id="node8" class="node">
<title>system_cpu_interrupts_int_requestor</title>
<path fill="#94918b" stroke="#000000" d="M597.5,-206C597.5,-206 526.5,-206 526.5,-206 520.5,-206 514.5,-200 514.5,-194 514.5,-194 514.5,-182 514.5,-182 514.5,-176 520.5,-170 526.5,-170 526.5,-170 597.5,-170 597.5,-170 603.5,-170 609.5,-176 609.5,-182 609.5,-182 609.5,-194 609.5,-194 609.5,-200 603.5,-206 597.5,-206"/>
<text text-anchor="middle" x="562" y="-184.3" font-family="Arial" font-size="14.00" fill="#000000">int_requestor</text>
</g>
<!-- system_cpu_interrupts_int_responder -->
<g id="node9" class="node">
<title>system_cpu_interrupts_int_responder</title>
<path fill="#94918b" stroke="#000000" d="M714.5,-206C714.5,-206 639.5,-206 639.5,-206 633.5,-206 627.5,-200 627.5,-194 627.5,-194 627.5,-182 627.5,-182 627.5,-176 633.5,-170 639.5,-170 639.5,-170 714.5,-170 714.5,-170 720.5,-170 726.5,-176 726.5,-182 726.5,-182 726.5,-194 726.5,-194 726.5,-200 720.5,-206 714.5,-206"/>
<text text-anchor="middle" x="677" y="-184.3" font-family="Arial" font-size="14.00" fill="#000000">int_responder</text>
</g>
<!-- system_cpu_interrupts_pio -->
<g id="node10" class="node">
<title>system_cpu_interrupts_pio</title>
<path fill="#94918b" stroke="#000000" d="M787,-206C787,-206 757,-206 757,-206 751,-206 745,-200 745,-194 745,-194 745,-182 745,-182 745,-176 751,-170 757,-170 757,-170 787,-170 787,-170 793,-170 799,-176 799,-182 799,-182 799,-194 799,-194 799,-200 793,-206 787,-206"/>
<text text-anchor="middle" x="772" y="-184.3" font-family="Arial" font-size="14.00" fill="#000000">pio</text>
</g>
<!-- system_membus_cpu_side_ports&#45;&gt;system_cpu_interrupts_int_requestor -->
<g id="edge5" class="edge">
<title>system_membus_cpu_side_ports&#45;&gt;system_cpu_interrupts_int_requestor</title>
<path fill="none" stroke="black" d="M553,-433.8C555.05,-377.96 559.69,-251.8 561.37,-206.01"/>
<polygon fill="black" stroke="black" points="549.5,-433.86 552.63,-443.99 556.49,-434.12 549.5,-433.86"/>
</g>
<!-- system_l2cache_mem_side -->
<g id="node16" class="node">
<title>system_l2cache_mem_side</title>
<path fill="#94918b" stroke="#000000" d="M268,-350C268,-350 212,-350 212,-350 206,-350 200,-344 200,-338 200,-338 200,-326 200,-326 200,-320 206,-314 212,-314 212,-314 268,-314 268,-314 274,-314 280,-320 280,-326 280,-326 280,-338 280,-338 280,-344 274,-350 268,-350"/>
<text text-anchor="middle" x="240" y="-328.3" font-family="Arial" font-size="14.00" fill="#000000">mem_side</text>
</g>
<!-- system_membus_cpu_side_ports&#45;&gt;system_l2cache_mem_side -->
<g id="edge4" class="edge">
<title>system_membus_cpu_side_ports&#45;&gt;system_l2cache_mem_side</title>
<path fill="none" stroke="black" d="M487.64,-456.68C431.59,-450.33 350.11,-434.66 290,-396 272.15,-384.52 257.87,-364.46 249.21,-350.06"/>
<polygon fill="black" stroke="black" points="487.48,-460.18 497.8,-457.76 488.22,-453.22 487.48,-460.18"/>
</g>
<!-- system_membus_mem_side_ports -->
<g id="node12" class="node">
<title>system_membus_mem_side_ports</title>
<path fill="#586070" stroke="#000000" d="M730,-480C730,-480 636,-480 636,-480 630,-480 624,-474 624,-468 624,-468 624,-456 624,-456 624,-450 630,-444 636,-444 636,-444 730,-444 730,-444 736,-444 742,-450 742,-456 742,-456 742,-468 742,-468 742,-474 736,-480 730,-480"/>
<text text-anchor="middle" x="683" y="-458.3" font-family="Arial" font-size="14.00" fill="#000000">mem_side_ports</text>
</g>
<!-- system_membus_mem_side_ports&#45;&gt;system_cpu_interrupts_int_responder -->
<g id="edge8" class="edge">
<title>system_membus_mem_side_ports&#45;&gt;system_cpu_interrupts_int_responder</title>
<path fill="none" stroke="black" d="M681.35,-443.91C680.16,-430.82 678.66,-412.28 678,-396 675.37,-331.67 675.93,-256 676.51,-216.37"/>
<polygon fill="black" stroke="black" points="680.01,-216.24 676.67,-206.18 673.01,-216.13 680.01,-216.24"/>
</g>
<!-- system_membus_mem_side_ports&#45;&gt;system_cpu_interrupts_pio -->
<g id="edge7" class="edge">
<title>system_membus_mem_side_ports&#45;&gt;system_cpu_interrupts_pio</title>
<path fill="none" stroke="black" d="M682.35,-443.74C681.08,-405.48 679.11,-316.16 688,-306 702.24,-289.73 719.58,-312.07 736,-298 759.7,-277.69 767.88,-241.43 770.65,-216.34"/>
<polygon fill="black" stroke="black" points="774.14,-216.62 771.54,-206.35 767.17,-216 774.14,-216.62"/>
</g>
<!-- system_mem_ctrl_port -->
<g id="node17" class="node">
<title>system_mem_ctrl_port</title>
<path fill="#4b4746" stroke="#000000" d="M744,-350C744,-350 714,-350 714,-350 708,-350 702,-344 702,-338 702,-338 702,-326 702,-326 702,-320 708,-314 714,-314 714,-314 744,-314 744,-314 750,-314 756,-320 756,-326 756,-326 756,-338 756,-338 756,-344 750,-350 744,-350"/>
<text text-anchor="middle" x="729" y="-328.3" font-family="Arial" font-size="14.00" fill="#000000">port</text>
</g>
<!-- system_membus_mem_side_ports&#45;&gt;system_mem_ctrl_port -->
<g id="edge6" class="edge">
<title>system_membus_mem_side_ports&#45;&gt;system_mem_ctrl_port</title>
<path fill="none" stroke="black" d="M689.2,-443.74C696.92,-422.27 710.18,-385.36 719.26,-360.1"/>
<polygon fill="black" stroke="black" points="722.66,-360.99 722.75,-350.4 716.07,-358.62 722.66,-360.99"/>
</g>
<!-- system_l2bus_cpu_side_ports -->
<g id="node13" class="node">
<title>system_l2bus_cpu_side_ports</title>
<path fill="#586070" stroke="#000000" d="M264,-206C264,-206 180,-206 180,-206 174,-206 168,-200 168,-194 168,-194 168,-182 168,-182 168,-176 174,-170 180,-170 180,-170 264,-170 264,-170 270,-170 276,-176 276,-182 276,-182 276,-194 276,-194 276,-200 270,-206 264,-206"/>
<text text-anchor="middle" x="222" y="-184.3" font-family="Arial" font-size="14.00" fill="#000000">cpu_side_ports</text>
</g>
<!-- system_l2bus_cpu_side_ports&#45;&gt;system_cpu_icache_mem_side -->
<g id="edge9" class="edge">
<title>system_l2bus_cpu_side_ports&#45;&gt;system_cpu_icache_mem_side</title>
<path fill="none" stroke="black" d="M273.69,-166.49C278.49,-164.87 283.31,-163.34 288,-162 375.99,-136.81 411.41,-168.91 490,-122 508.51,-110.95 523.37,-90.81 532.39,-76.27"/>
<polygon fill="black" stroke="black" points="272.17,-163.32 263.9,-169.94 274.49,-169.92 272.17,-163.32"/>
</g>
<!-- system_l2bus_cpu_side_ports&#45;&gt;system_cpu_dcache_mem_side -->
<g id="edge10" class="edge">
<title>system_l2bus_cpu_side_ports&#45;&gt;system_cpu_dcache_mem_side</title>
<path fill="none" stroke="black" d="M246.24,-162.37C271.06,-137.16 309.01,-98.6 330.87,-76.4"/>
<polygon fill="black" stroke="black" points="243.51,-160.16 238.99,-169.74 248.5,-165.07 243.51,-160.16"/>
</g>
<!-- system_l2bus_mem_side_ports -->
<g id="node14" class="node">
<title>system_l2bus_mem_side_ports</title>
<path fill="#586070" stroke="#000000" d="M138,-206C138,-206 44,-206 44,-206 38,-206 32,-200 32,-194 32,-194 32,-182 32,-182 32,-176 38,-170 44,-170 44,-170 138,-170 138,-170 144,-170 150,-176 150,-182 150,-182 150,-194 150,-194 150,-200 144,-206 138,-206"/>
<text text-anchor="middle" x="91" y="-184.3" font-family="Arial" font-size="14.00" fill="#000000">mem_side_ports</text>
</g>
<!-- system_l2cache_cpu_side -->
<g id="node15" class="node">
<title>system_l2cache_cpu_side</title>
<path fill="#94918b" stroke="#000000" d="M357.5,-350C357.5,-350 310.5,-350 310.5,-350 304.5,-350 298.5,-344 298.5,-338 298.5,-338 298.5,-326 298.5,-326 298.5,-320 304.5,-314 310.5,-314 310.5,-314 357.5,-314 357.5,-314 363.5,-314 369.5,-320 369.5,-326 369.5,-326 369.5,-338 369.5,-338 369.5,-344 363.5,-350 357.5,-350"/>
<text text-anchor="middle" x="334" y="-328.3" font-family="Arial" font-size="14.00" fill="#000000">cpu_side</text>
</g>
<!-- system_l2cache_cpu_side&#45;&gt;system_l2bus_mem_side_ports -->
<g id="edge11" class="edge">
<title>system_l2cache_cpu_side&#45;&gt;system_l2bus_mem_side_ports</title>
<path fill="none" stroke="black" d="M298.52,-309.45C295.37,-308.11 292.17,-306.93 289,-306 261.22,-297.88 183.87,-312.81 159,-298 124.32,-277.34 104.69,-231.41 96.16,-206.27"/>
<polygon fill="black" stroke="black" points="297.2,-312.7 307.73,-313.87 300.23,-306.39 297.2,-312.7"/>
</g>
</g>
</svg>
